<?xml version="1.0" encoding="UTF-8"?>
<!DOCTYPE svg PUBLIC "-//W3C//DTD SVG 1.1//EN" "http://www.w3.org/Graphics/SVG/1.1/DTD/svg11.dtd">
<!-- Creator: CorelDRAW 2020 (64 Bit) -->
<svg xmlns="http://www.w3.org/2000/svg" xml:space="preserve" width="550px" height="200px" version="1.1" style="shape-rendering:geometricPrecision; text-rendering:geometricPrecision; image-rendering:optimizeQuality; fill-rule:evenodd; clip-rule:evenodd"
viewBox="0 0 550 200"
 xmlns:xlink="http://www.w3.org/1999/xlink"
 xmlns:xodm="http://www.corel.com/coreldraw/odm/2003">
 <defs>
  <style type="text/css">
   <![CDATA[
    .fil0 {fill:black;fill-rule:nonzero}
    .fil1 {fill:#7045D4;fill-rule:nonzero}
   ]]>
  </style>
 </defs>
 <g id="Camada_x0020_1">
  <metadata id="CorelCorpID_0Corel-Layer"/>
  <g id="_1722121337536">
   <path class="fil0" d="M69.94 122.07l-41.5 -13.6 0 -11 41.5 -13.2 0 10.8 -29.5 7.8 29.5 8.4 0 10.8zm411.19 0l0 -10.8 29.5 -8.4 -29.5 -7.8 0 -10.8 41.5 13.2 0 11 -41.5 13.6zm-381.16 16.5c-4.2,0 -7.73,-0.89 -10.6,-2.65 -2.86,-1.77 -5.02,-4.64 -6.45,-8.6 -1.43,-3.97 -2.15,-9.19 -2.15,-15.65 0,-6.67 0.62,-12.07 1.85,-16.2 1.23,-4.14 3.32,-7.17 6.25,-9.1 2.93,-1.94 6.97,-2.9 12.1,-2.9 2.47,0 4.9,0.25 7.3,0.75 2.4,0.5 4.53,1.08 6.4,1.75l0 -24.3 14.9 0 0 76.3 -12.5 0 -2.4 -5.1c-1.13,1.06 -2.51,2.03 -4.15,2.9 -1.63,0.86 -3.35,1.55 -5.15,2.05 -1.8,0.5 -3.6,0.75 -5.4,0.75zm5.2 -11.9c2,0 3.82,-0.34 5.45,-1 1.63,-0.67 2.98,-1.34 4.05,-2l0 -27c-1.33,-0.47 -2.73,-0.94 -4.2,-1.4 -1.46,-0.47 -3.03,-0.7 -4.7,-0.7 -2.46,0 -4.45,0.43 -5.95,1.3 -1.5,0.86 -2.58,2.48 -3.25,4.85 -0.67,2.36 -1,5.78 -1,10.25 0,4.13 0.32,7.35 0.95,9.65 0.64,2.3 1.65,3.88 3.05,4.75 1.4,0.86 3.27,1.3 5.6,1.3zm34.28 -50.3c-1.4,0 -2.1,-0.67 -2.1,-2l0 -9.8c0,-1.4 0.7,-2.1 2.1,-2.1l11.4 0c0.6,0 1.07,0.2 1.4,0.6 0.34,0.4 0.5,0.9 0.5,1.5l0 9.8c0,1.33 -0.63,2 -1.9,2l-11.4 0zm-1.8 61.6l0 -53.7 14.8 0 0 53.7 -14.8 0zm45.78 0.5c-5.93,0 -10.66,-0.79 -14.2,-2.35 -3.53,-1.57 -6.08,-4.35 -7.65,-8.35 -1.56,-4 -2.35,-9.54 -2.35,-16.6 0,-7.27 0.74,-12.9 2.2,-16.9 1.47,-4 3.94,-6.8 7.4,-8.4 3.47,-1.6 8.17,-2.4 14.1,-2.4 5.34,0 9.6,0.53 12.8,1.6 3.2,1.06 5.52,2.93 6.95,5.6 1.44,2.66 2.15,6.43 2.15,11.3 0,3.6 -0.71,6.45 -2.15,8.55 -1.43,2.1 -3.45,3.6 -6.05,4.5 -2.6,0.9 -5.66,1.35 -9.2,1.35l-13.5 0c0.14,2.73 0.55,4.91 1.25,6.55 0.7,1.63 2,2.8 3.9,3.5 1.9,0.7 4.65,1.05 8.25,1.05l15.7 0 0 8.7c-2.6,0.53 -5.45,1.05 -8.55,1.55 -3.1,0.5 -6.78,0.75 -11.05,0.75zm-9.7 -30.9l12.2 0c2,0 3.47,-0.4 4.4,-1.2 0.94,-0.8 1.4,-2.24 1.4,-4.3 0,-1.94 -0.3,-3.49 -0.9,-4.65 -0.6,-1.17 -1.53,-2 -2.8,-2.5 -1.26,-0.5 -2.96,-0.75 -5.1,-0.75 -2.26,0 -4.06,0.38 -5.4,1.15 -1.33,0.76 -2.3,2.11 -2.9,4.05 -0.6,1.93 -0.9,4.66 -0.9,8.2zm51.68 55.2c-3.4,0 -6.41,-0.5 -9.05,-1.5 -2.63,-1 -4.71,-2.45 -6.25,-4.35 -1.53,-1.9 -2.3,-4.25 -2.3,-7.05l0 -1.6c0,-2.87 0.82,-5.32 2.45,-7.35 1.64,-2.04 3.75,-3.59 6.35,-4.65 2.6,-1.07 5.37,-1.6 8.3,-1.6l4.4 4.6c-1.46,0 -2.76,0.23 -3.9,0.7 -1.13,0.46 -2.01,1.15 -2.65,2.05 -0.63,0.9 -0.95,2.01 -0.95,3.35l0 1.1c0,1.93 0.67,3.4 2,4.4 1.34,1 3.24,1.5 5.7,1.5l10.2 0c2.47,0 4.45,-0.49 5.95,-1.45 1.5,-0.97 2.25,-2.42 2.25,-4.35l0 -1.6c0,-1.2 -0.28,-2.22 -0.85,-3.05 -0.56,-0.84 -1.4,-1.49 -2.5,-1.95 -1.1,-0.47 -2.58,-0.7 -4.45,-0.7l-11.9 0c-6,0 -10.45,-1.12 -13.35,-3.35 -2.9,-2.24 -4.35,-4.99 -4.35,-8.25 0,-2.74 0.79,-5.02 2.35,-6.85 1.57,-1.84 3.75,-3.05 6.55,-3.65 -2.13,-1.14 -3.83,-2.52 -5.1,-4.15 -1.26,-1.64 -2.16,-3.4 -2.7,-5.3 -0.53,-1.9 -0.8,-3.89 -0.8,-5.95 0,-3.94 0.82,-7.2 2.45,-9.8 1.64,-2.6 4.1,-4.54 7.4,-5.8 3.3,-1.27 7.45,-1.9 12.45,-1.9l29.1 0 0 8.1 -8.2 1.5c0.6,0.66 1.2,1.45 1.8,2.35 0.6,0.9 1.12,2.06 1.55,3.5 0.44,1.43 0.65,3.21 0.65,5.35 0,3.06 -0.65,5.83 -1.95,8.3 -1.3,2.46 -3.36,4.43 -6.2,5.9 -2.83,1.46 -6.58,2.2 -11.25,2.2l-9.5 0c-1.8,0 -3.26,0.26 -4.4,0.8 -1.13,0.53 -1.7,1.5 -1.7,2.9 0,1.13 0.49,1.91 1.45,2.35 0.97,0.43 2.05,0.65 3.25,0.65l14.8 0c4.14,0 7.64,0.53 10.5,1.6 2.87,1.06 5.07,2.78 6.6,5.15 1.54,2.36 2.3,5.48 2.3,9.35l0 1.5c0,5.26 -1.66,9.41 -5,12.45 -3.33,3.03 -8.46,4.55 -15.4,4.55l-16.1 0zm5.8 -52.4l5.7 0c2.07,0 3.65,-0.32 4.75,-0.95 1.1,-0.64 1.87,-1.5 2.3,-2.6 0.44,-1.1 0.65,-2.39 0.65,-3.85 0,-1.87 -0.28,-3.37 -0.85,-4.5 -0.56,-1.14 -1.38,-1.94 -2.45,-2.4 -1.06,-0.47 -2.4,-0.7 -4,-0.7l-5.6 0c-2.53,0 -4.43,0.55 -5.7,1.65 -1.26,1.1 -1.9,3.01 -1.9,5.75 0,2.6 0.6,4.51 1.8,5.75 1.2,1.23 2.97,1.85 5.3,1.85zm58.48 28.1c-4.4,0 -8.16,-0.45 -11.3,-1.35 -3.13,-0.9 -5.68,-2.42 -7.65,-4.55 -1.96,-2.14 -3.4,-4.97 -4.3,-8.5 -0.9,-3.54 -1.35,-7.9 -1.35,-13.1 0,-5.47 0.45,-9.99 1.35,-13.55 0.9,-3.57 2.34,-6.37 4.3,-8.4 1.97,-2.04 4.54,-3.47 7.7,-4.3 3.17,-0.84 6.92,-1.25 11.25,-1.25 4.47,0 8.27,0.43 11.4,1.3 3.14,0.86 5.69,2.31 7.65,4.35 1.97,2.03 3.4,4.83 4.3,8.4 0.9,3.56 1.35,8.05 1.35,13.45 0,5.33 -0.43,9.78 -1.3,13.35 -0.86,3.56 -2.26,6.38 -4.2,8.45 -1.93,2.06 -4.48,3.53 -7.65,4.4 -3.16,0.86 -7.01,1.3 -11.55,1.3zm0 -11.8c1.8,0 3.32,-0.17 4.55,-0.5 1.24,-0.34 2.24,-1.02 3,-2.05 0.77,-1.04 1.35,-2.62 1.75,-4.75 0.4,-2.14 0.6,-4.94 0.6,-8.4 0,-3.54 -0.2,-6.35 -0.6,-8.45 -0.4,-2.1 -0.98,-3.67 -1.75,-4.7 -0.76,-1.04 -1.76,-1.72 -3,-2.05 -1.23,-0.34 -2.75,-0.5 -4.55,-0.5 -1.73,0 -3.21,0.16 -4.45,0.5 -1.23,0.33 -2.25,1.01 -3.05,2.05 -0.8,1.03 -1.38,2.6 -1.75,4.7 -0.36,2.1 -0.55,4.91 -0.55,8.45 0,3.46 0.19,6.26 0.55,8.4 0.37,2.13 0.95,3.71 1.75,4.75 0.8,1.03 1.82,1.71 3.05,2.05 1.24,0.33 2.72,0.5 4.45,0.5z"/>
   <path class="fil1" d="M339.87 138.57c-4.33,0 -7.91,-0.94 -10.75,-2.8 -2.83,-1.87 -4.95,-4.79 -6.35,-8.75 -1.4,-3.97 -2.1,-9.09 -2.1,-15.35 0,-6.6 0.65,-11.95 1.95,-16.05 1.3,-4.1 3.42,-7.1 6.35,-9 2.94,-1.9 6.9,-2.85 11.9,-2.85 2.8,0 5.59,0.3 8.35,0.9 2.77,0.6 5.19,1.26 7.25,2l0 -25 10 0 0 76.3 -8.2 0 -1.8 -5.3c-1.06,0.93 -2.53,1.85 -4.4,2.75 -1.86,0.9 -3.86,1.65 -6,2.25 -2.13,0.6 -4.2,0.9 -6.2,0.9zm3.2 -8.2c2.74,0 5.22,-0.44 7.45,-1.3 2.24,-0.87 4.22,-1.77 5.95,-2.7l0 -32.5c-2.06,-0.6 -4.08,-1.15 -6.05,-1.65 -1.96,-0.5 -4.15,-0.75 -6.55,-0.75 -3.13,0 -5.66,0.56 -7.6,1.7 -1.93,1.13 -3.33,3.13 -4.2,6 -0.86,2.86 -1.3,6.86 -1.3,12 0,4.73 0.4,8.51 1.2,11.35 0.8,2.83 2.12,4.85 3.95,6.05 1.84,1.2 4.22,1.8 7.15,1.8zm55.09 8.2c-5.67,0 -10.18,-0.84 -13.55,-2.5 -3.37,-1.67 -5.77,-4.49 -7.2,-8.45 -1.44,-3.97 -2.15,-9.45 -2.15,-16.45 0,-7.14 0.71,-12.69 2.15,-16.65 1.43,-3.97 3.81,-6.75 7.15,-8.35 3.33,-1.6 7.83,-2.4 13.5,-2.4 4.93,0 8.92,0.51 11.95,1.55 3.03,1.03 5.27,2.86 6.7,5.5 1.43,2.63 2.15,6.28 2.15,10.95 0,3.26 -0.65,5.86 -1.95,7.8 -1.3,1.93 -3.13,3.33 -5.5,4.2 -2.37,0.86 -5.18,1.3 -8.45,1.3l-17.7 0c0.07,3.86 0.52,6.95 1.35,9.25 0.83,2.3 2.33,3.96 4.5,5 2.17,1.03 5.35,1.55 9.55,1.55l16.7 0 0 6c-2.87,0.4 -5.8,0.78 -8.8,1.15 -3,0.36 -6.47,0.55 -10.4,0.55zm-13 -29.8l16.9 0c2.67,0 4.63,-0.5 5.9,-1.5 1.27,-1 1.9,-2.84 1.9,-5.5 0,-2.67 -0.38,-4.77 -1.15,-6.3 -0.77,-1.54 -2.02,-2.64 -3.75,-3.3 -1.73,-0.67 -4.03,-1 -6.9,-1 -3.27,0 -5.85,0.5 -7.75,1.5 -1.9,1 -3.23,2.76 -4,5.3 -0.77,2.53 -1.15,6.13 -1.15,10.8zm55.89 29.2l-19.41 -53.5 10.31 0 15.1 44.2 15.39 -44.2 10.31 0 -20.1 53.5 -11.6 0z"/>
  </g>
 </g>
</svg>
